<svg xmlns="http://www.w3.org/2000/svg" xmlns:xlink="http://www.w3.org/1999/xlink" width="768" height="1024" viewBox="0 0 768 1024"><defs><clipPath id="b"><rect width="768" height="1024"/></clipPath></defs><g id="a" clip-path="url(#b)"><rect width="768" height="1024" fill="#fff"/><g transform="translate(-0.07 9)"><path d="M0,498.528" transform="translate(0 -203.995)" fill="none" stroke="#707070" stroke-width="1"/><path d="M0,385.276" transform="translate(0 -160.006)" fill="none" stroke="#707070" stroke-width="1"/><path d="M740.008,407.6" transform="translate(-443.978 -269.189)" fill="none" stroke="#707070" stroke-width="1"/><path d="M-17.109,97.714c12.618,13.475,30.222,29.6,56.66,36.887,51.644,14.238,127.354,10.521,195.366,0,32.2-4.981,64.752-10.663,96.2-16.05C377.959,110.527,452,100.13,452,100.13s-.938.017,8.69-.486,27.073-1.931,37.395-1.931c7.381,0,1.926,5.511,9.307,5.035,1.84-.118.617-.208,2.682-1.213-.209.3,1.156.115,4.324-.563,4.967-1.163,8.142-1.987,8.142-1.987s5.023-.971,5.376-1.153c.294-.2,2.235-.03,5.456,0,113.624,7.129,217.592,41.932,217.592,41.932V5.3H-17.109Z" transform="translate(17.109 -4.597)" fill="#84cbff"/><path d="M-17.109,97.714c12.618,13.475,30.222,29.6,56.66,36.887,24.014,6.621,53.232,9.359,84.46,9.336,35.929-.026,74.519-3.707,110.906-9.336,32.2-4.981,64.752-10.663,96.2-16.05,64.435-11.038,124.245-20.837,166.967-20.837,129.743,0,252.88,42.051,252.88,42.051V5.3H-17.109Z" transform="translate(17.109 -15.76)" fill="#159cff"/><path d="M36.454,23.2C39.1,22.282,82.635,10.13,82.635,10.13c.944-1.26,1.67-4.844,1.67-4.844a1.858,1.858,0,0,0-.155.928s-1.063,2.535-.8,2.665c.141.069-.1.955-.768,2.7-.225.588-.317,1.28-.605,2.039a5.748,5.748,0,0,0-.346,1.316c-.04.146-.287,1.79-.287,1.79L78.339,70.535a2.968,2.968,0,0,1-3.394,3.287s-26.9.064-39.038.455c-6.146.868-2.163.105-5.677.886a35.232,35.232,0,0,0-5.023,1.691,31.962,31.962,0,0,0-5.916,4c-1.869,1.859-1.682,1.45-1.682,1.45l2.515-6.036s-2.03,5.773-2.295,5.815c-30.206,28.44,5.2-15.055,9.122-15.844l-.09,0c-.205.012-2.487,7.957-2.8,7.975-12.839.732-1.159-1.158-1.159-1.158-1.341-.118-.582-.261-1.42-1.422a2.785,2.785,0,0,1-.147-2.441L33,26.538a4.859,4.859,0,0,1,1.184-2.181c.024-.023.049-.046.154-.136A6.831,6.831,0,0,1,36.454,23.2Z" transform="translate(481.005 29.275) rotate(45)" fill="#84cbff"/><path d="M30.384,29.356C33.335,27.771,80.841,5.132,80.841,5.132a3.041,3.041,0,0,1,3.522,3.431L78.415,73.258c-.095,1.11,0,2.855-.891,3.748-.651.654-2.266.485-3.3.608L9.343,86.605c-1.388.166-3.166.3-3.828-.785-.276-.442-.27-1.3.305-2.646L26.126,33.786a8.686,8.686,0,0,1,1.655-2.654c.03-.031.06-.062.188-.183A11.515,11.515,0,0,1,30.384,29.356Z" transform="translate(484.848 11.743) rotate(45)" fill="#fff"/><path d="M28.54,23.388c3.9-1.166,63.1-17.642,63.1-17.642a8.313,8.313,0,0,1,6.538,6.538l14.752,95.853a3.958,3.958,0,0,1-4.794,4.794L12.284,98.18a8.313,8.313,0,0,1-6.538-6.538L23.665,28.263C24.374,25.74,24.637,24.554,28.54,23.388Z" transform="translate(521.488 6.789) rotate(45)" fill="none"/><path d="M17.438,81.383c4.212-.083,57.268-24.535,57.268-24.535,2.438-1.048,4.433-1.769,4.461-3.579L68.015,7.778C67.451,5.948,66.6,3.07,63.694,4.447c0,0-53.584,25.267-56.748,26.861S1.9,33.739,2.253,35.624l10.589,42.5C13.47,79.86,13.226,81.466,17.438,81.383Z" transform="translate(517.982 -10.93) rotate(45)" fill="#fff"/><path d="M2.391,5.766,54.21,3.415a2.078,2.078,0,0,1,1.917,2.279,2.267,2.267,0,0,1-1.875,2.451L2.433,10.5A2.078,2.078,0,0,1,.516,8.217,2.267,2.267,0,0,1,2.391,5.766Z" transform="translate(449.92 68.224) rotate(43)" fill="#e3f4ff"/><path d="M15.9,72.559C19.741,72.484,68.181,50.7,68.181,50.7c2.226-.934,4.429-1.344,4.072-3.188l-10.2-40.5c-.516-1.629-1.291-4.191-3.948-2.964,0,0-48.921,22.513-51.81,23.933s-4.606,2.166-4.284,3.844L11.7,69.656C12.272,71.2,12.05,72.635,15.9,72.559Z" transform="translate(517.104 -5.333) rotate(45)" fill="#84cbff"/></g></g></svg>