<svg xmlns="http://www.w3.org/2000/svg" xmlns:xlink="http://www.w3.org/1999/xlink" width="1920" height="1080" viewBox="0 0 1920 1080"><defs><clipPath id="b"><rect width="1920" height="1080"/></clipPath></defs><g id="a" clip-path="url(#b)"><rect width="1920" height="1080" fill="#fff"/><path d="M0,498.528" fill="none" stroke="#707070" stroke-width="1"/><path d="M0,385.276" fill="none" stroke="#707070" stroke-width="1"/><path d="M740.008,407.6" transform="translate(0 -164.345)" fill="none" stroke="#707070" stroke-width="1"/><path d="M-17.109,156.4c31.542,22.033,75.549,48.4,141.637,60.314,129.1,23.28,318.356,17.2,488.371,0,80.5-8.145,161.865-17.436,240.472-26.243,117.1-13.121,302.177-30.12,302.177-30.12s-2.345.029,21.723-.794,67.676-3.157,93.479-3.157c18.452,0,4.815,9.012,23.266,8.232,4.6-.193,1.542-.34,6.7-1.983-.522.5,2.891.188,10.809-.92,12.415-1.9,20.353-3.25,20.353-3.25s12.556-1.587,13.439-1.885c.735-.334,5.587-.049,13.64,0,284.035,11.656,543.931,68.563,543.931,68.563V5.3h-1920Z" transform="translate(17.109 12.789)" fill="#84cbff"/><path d="M-17.109,156.4c31.542,22.033,75.549,48.4,141.637,60.314,60.031,10.825,133.069,15.3,211.131,15.266,89.815-.043,186.281-6.062,277.239-15.266,80.5-8.145,161.865-17.436,240.472-26.243,161.073-18.048,310.583-34.071,417.378-34.071,324.328,0,632.142,68.757,632.142,68.757V5.3h-1920Z" transform="translate(17.109 -5.464)" fill="#159cff"/><path d="M60.2,50.819C66.065,47.782,161.422,3.744,161.422,3.744,163.923.727,166.98-7,166.98-7a5.267,5.267,0,0,0-.723,1.987s-3.3,5.707-2.807,5.86c.262.081-.623,2.019-2.758,5.912-.721,1.314-1.211,2.787-2.137,4.482a17.187,17.187,0,0,0-1.287,2.873c-.145.319-1.37,3.827-1.37,3.827L126.32,130.591a10.087,10.087,0,0,1-8.448,8.274S62.187,150.672,36.9,156.748c-13.094,4.464-4.522,1.156-12.131,4.3-6.272,3.076-7.448,3.421-11.127,5.678,0,0-9.3,6.18-13.975,10.839s-4.11,3.73-4.11,3.73l7.823-13.58s-6.705,12.826-7.272,13.028C-78.732,252.694,13.4,147.335,21.859,144c.161-.04,0,0-.188.048-.43.113-8.6,17.542-9.259,17.716-26.882,7.087-1.9-1.893-1.9-1.893-2.724.339-1.092-.288-2.321-2.325-.512-.827-.449-2.438.755-4.986L51.608,59.233A17.2,17.2,0,0,1,55,54.208c.06-.058.122-.117.378-.348A23.885,23.885,0,0,1,60.2,50.819Z" transform="translate(1219.189 55.268) rotate(45)" fill="#84cbff"/><path d="M59.159,55.043c6.794-4.56,114.911-72.017,114.911-72.017,4.516-1.452,7.112,1.042,5.8,5.571L139.486,125.036c-.678,2.337-1.231,5.906-3.47,8.141-1.631,1.635-4.9,1.986-7.084,2.689L-9.221,182.627c-2.944.947-6.682,2-7.579.037-.378-.795.006-2.569,1.78-5.607l63.446-111A31.7,31.7,0,0,1,53,59.846c.075-.076.152-.154.468-.46A42.633,42.633,0,0,1,59.159,55.043Z" transform="translate(1210.865 24.456) rotate(45)" fill="#fff"/><path d="M76.8,63.9C85.385,59.8,215.019.019,215.019.019A9.887,9.887,0,0,1,225.71,10.71L214.635,202.635a13.063,13.063,0,0,1-12,12L10.71,225.71A9.887,9.887,0,0,1,.019,215.019L64.6,76.108C67.161,70.581,68.22,68.012,76.8,63.9Z" transform="translate(1303.5 -11.419) rotate(45)" fill="none"/><path d="M3.376,166.458c8.75-2,129.139-75.616,129.139-75.616,5.5-3.226,9.94-5.583,10.782-9.34L139.967-7.785c-.373-3.543-.879-9.129-7.5-5.017,0,0-121.833,75.532-129.072,80.2S-8.1,74.621-8.185,78.37L-4.718,161.7C-4.171,165.028-5.374,168.457,3.376,166.458Z" transform="translate(1296.912 -6.771) rotate(45)" fill="#fff"/><path d="M2.775,15.6l109.8-27.226c2.219-.55,3.579,1.159,3.038,3.817s-2.778,5.259-5,5.809L.816,25.222c-2.219.55-3.579-1.159-3.038-3.817S.556,16.146,2.775,15.6Z" transform="translate(1127.769 124.752) rotate(43)" fill="#e3f4ff"/><path d="M3.723,148.382c7.99-1.825,117.67-67.924,117.67-67.924,5.011-2.9,9.748-4.7,9.808-8.362L127.674-7.267c-.36-3.148-.853-8.112-6.881-4.42,0,0-110.99,67.81-117.584,72S-7.261,66.8-7.323,70.129L-3.7,144.2C-3.186,147.152-4.266,150.207,3.723,148.382Z" transform="translate(1294.584 2.933) rotate(45)" fill="#84cbff"/></g></svg>