<svg xmlns="http://www.w3.org/2000/svg" xmlns:xlink="http://www.w3.org/1999/xlink" width="1920" height="1080" viewBox="0 0 1920 1080">
  <defs>
    <clipPath id="clip-Web_1920_1">
      <rect width="1920" height="1080"/>
    </clipPath>
  </defs>
  <g id="Web_1920_1" data-name="Web 1920 – 1" clip-path="url(#clip-Web_1920_1)">
    <rect width="1920" height="1080" fill="#fff"/>
    <path id="Path_1" data-name="Path 1" d="M0,498.528" fill="none" stroke="#707070" stroke-width="1"/>
    <path id="Path_2" data-name="Path 2" d="M0,385.276" fill="none" stroke="#707070" stroke-width="1"/>
    <path id="Path_4" data-name="Path 4" d="M740.008,407.6" transform="translate(0 -92.686)" fill="none" stroke="#707070" stroke-width="1"/>
    <g id="Group_1" data-name="Group 1" transform="translate(0 88.84)">
      <path id="Path_5" data-name="Path 5" d="M0,498.528" transform="translate(0 -187.439)" fill="none"/>
      <path id="Path_6" data-name="Path 6" d="M0,385.276" transform="translate(0 -144.835)" fill="none"/>
      <path id="Path_7" data-name="Path 7" d="M-17.109,183.955C14.433,210,58.44,241.175,124.528,255.266c129.1,27.525,318.356,20.339,488.371,0,80.5-9.63,161.865-20.615,240.472-31.028,96.8-12.824,247.4-53.613,296.778-40.933,3.079.791,6.986,1.8,10.24,2.466,14.171,3.854,5.756,1.444,8.77,1.909,46.4,7.734,64.391-3.724,101.59-3.724,324.328,0,632.142,81.294,632.142,81.294V5.3h-1920Z" transform="translate(17.109 -5.304)" fill="#84cbff"/>
      <path id="Path_8" data-name="Path 8" d="M740.008,407.6" transform="translate(0 -162.482)" fill="none"/>
    </g>
    <path id="Path_3" data-name="Path 3" d="M-17.109,230.552C14.433,263.4,58.44,302.7,124.528,320.463c129.1,34.7,318.356,25.645,488.371,0,80.5-12.142,161.865-25.992,240.472-39.122,161.073-26.9,310.583-50.79,417.378-50.79,324.328,0,632.142,102.5,632.142,102.5V5.3h-1920Z" transform="translate(17.109 -5.464)" fill="#159cff"/>
    <path id="Path_12" data-name="Path 12" d="M63.776,47.812C70.7,44.723,175.389,0,175.389,0a9.529,9.529,0,0,1,9.381,9.67s14.2,18.178-1.752,35.4c-6.747,7.283-3.824,52.6-3.824,52.6l-.013,67.8a9.529,9.529,0,0,1-9.381,9.67s-91.2-4.34-111.9,2.377-47.02,15.961-47.02,15.961l-9.506-9.506c-5.181,0,5.931-5.375,5.931-10.716l46.928-115.6C56.1,53.045,56.852,50.9,63.776,47.812Z" transform="translate(1274.793 108.186) rotate(45)" fill="#84cbff"/>
    <path id="Path_9" data-name="Path 9" d="M55.394,46.84C63.078,43.667,187.449,0,187.449,0a10.181,10.181,0,0,1,10.412,9.933L196.7,174.847a10.181,10.181,0,0,1-10.412,9.933L11.312,187.9c-3.749,0-8.568-.2-10.629-3.207-.855-1.224-1.038-3.429.217-6.726L44.806,56.941c1.142-2.613,1.909-4.455,3.9-6.329.074-.07.151-.14.47-.414A24.053,24.053,0,0,1,55.394,46.84Z" transform="translate(1270.724 71.843) rotate(45)" fill="#fff"/>
    <path id="Path_10" data-name="Path 10" d="M72.231,59.334C81.088,55.5,215,0,215,0a12,12,0,0,1,12,12V215a12,12,0,0,1-12,12H12A12,12,0,0,1,0,215L60.028,71.537C62.409,65.828,63.375,63.167,72.231,59.334Z" transform="translate(1303.5 47.292) rotate(45)" fill="none"/>
    <path id="Path_11" data-name="Path 11" d="M40.464,194.612c10.7-.049,144.6-60.159,144.6-60.159,6.156-2.57,11.2-4.325,11.2-8.924L166.18,9.5c-1.5-4.673-3.769-12.02-11.11-8.631,0,0-135.2,62.161-143.185,66.092S-.843,72.94.124,77.746l28.534,108.4C30.323,190.59,29.764,194.662,40.464,194.612Z" transform="translate(1355.596 -8.034) rotate(45)" fill="#fff"/>
    <rect id="Rectangle_1" data-name="Rectangle 1" width="176" height="12" rx="6" transform="translate(1164.644 199.229) rotate(43)" fill="#e3f4ff"/>
    <path id="Path_13" data-name="Path 13" d="M1149.015,341.061s-12.154-1.905-32.855-1.923a203.714,203.714,0,0,0-23.079.614c-21.558,1.335,15.146-2.064,15.146-2.064l25.839.779Z" transform="translate(-11.512 -77.298)" fill="#84cbff"/>
    <path id="Path_14" data-name="Path 14" d="M36.949,173.258c9.77-.044,132.036-53.558,132.036-53.558,5.621-2.288,11.2-3.247,10.226-7.945L151.746,8.454C150.373,4.293,148.3-2.247,141.6.77c0,0-123.46,55.34-130.747,58.84S-.77,64.937.114,69.215l26.055,96.5C27.689,169.677,27.179,173.3,36.949,173.258Z" transform="translate(1353.68 5.083) rotate(45)" fill="#84cbff"/>
  </g>
</svg>
