<svg xmlns="http://www.w3.org/2000/svg" xmlns:xlink="http://www.w3.org/1999/xlink" width="375" height="812" viewBox="0 0 375 812"><defs><clipPath id="b"><rect width="375" height="812"/></clipPath></defs><g id="a" clip-path="url(#b)"><rect width="375" height="812" fill="#fff"/><g transform="translate(0.209 15)"><path d="M0,498.528" transform="translate(0 -148.239)" fill="none" stroke="#707070" stroke-width="1"/><path d="M0,385.276" transform="translate(0 -117.873)" fill="none" stroke="#707070" stroke-width="1"/><path d="M740.008,407.6" transform="translate(-595.556 -244.139)" fill="none" stroke="#707070" stroke-width="1"/><path d="M-17.109,115.89c6.157,16.125,14.747,35.42,27.648,44.142,25.2,17.038,62.144,12.59,95.332,0,15.713-5.961,31.6-12.761,46.941-19.207,22.858-9.6,52.638-20.569,52.638-20.569s6.465-2.286,9.026-2.152,14.774-2.214,19.811-2.214c3.6,0,.94,6.6,4.542,6.025.9-.142.3-.249,1.309-1.451-.1.362.564.137,2.11-.673,2.424-1.392,3.973-2.378,3.973-2.378a25.942,25.942,0,0,0,2.623-1.38c.143-.244-2.682-4.25-1.11-4.214-4.178,4.4-31.982,8.638,6.724,4.859s103.226,49.534,103.226,49.534V5.3H-17.109Z" transform="translate(17.109 -6.632)" fill="#84cbff"/><path d="M-17.109,115.89c6.157,16.125,14.747,35.42,27.648,44.142,11.718,7.923,25.976,11.2,41.214,11.172,17.532-.031,36.363-4.437,54.118-11.172,15.713-5.961,31.6-12.761,46.941-19.207,31.442-13.209,60.627-24.935,81.474-24.935,63.31,0,123.4,50.321,123.4,50.321V5.3H-17.109Z" transform="translate(17.109 -19.991)" fill="#159cff"/><path d="M5.091,1.757c.584-.19,11.284-.29,11.284-.29A6.245,6.245,0,0,0,16.7,0a.735.735,0,0,0-.024.287,3.284,3.284,0,0,0-.149.812,2.427,2.427,0,0,1-.142.823c-.044.177-.057.392-.113.621a2.2,2.2,0,0,0-.063.4c-.007.045-.044.554-.044.554s-1.006,8.328-.666.873-.436,13.884-.436,13.884c.064.637-.261,1.045-.726.912,0,0-5.408,1.781-8.136,1.454-1.373.046-3.141,3.806-3.923,3.923-.63.175,2.3-4.322,1.941-4.145A5.6,5.6,0,0,0,2.93,21.443c-.4.518-.362.4-.362.4l.5-1.812s-.391,1.747-.45,1.751c-6.472,7.858,1-4.56,1.871-4.663l-.02,0c-.046,0-.469,2.42-.539,2.414-2.881-.245-.274-.409-.274-.409-.3-.087-.134-.1-.336-.5a1.249,1.249,0,0,1-.061-.776L5.394,4.805a1.458,1.458,0,0,1,.241-.644c.005-.006.011-.013.033-.037C5.737,4.046,4.846,1.837,5.091,1.757Z" transform="translate(247.865 82.208) rotate(45)" fill="#84cbff"/><path d="M8.793,8.636C10.025,8.057,29.965,0,29.965,0a1.632,1.632,0,0,1,1.68,1.643l-.061,28.135c0,.483.114,1.252-.243,1.608-.26.261-.974.123-1.421.137l-28.1,1.388c-.6.018-1.376.009-1.709-.5a1.332,1.332,0,0,1,.03-1.148L7.1,10.411a3,3,0,0,1,.621-1.1c.012-.012.024-.025.075-.073A3.937,3.937,0,0,1,8.793,8.636Z" transform="translate(249.832 83.663) rotate(45)" fill="#84cbff"/><path d="M10.764,10.572C12.272,9.864,36.682,0,36.682,0a2,2,0,0,1,2.056,2.012l-.074,34.442c0,.591.14,1.533-.3,1.969-.318.319-1.193.151-1.74.168l-34.4,1.7c-.737.022-1.685.01-2.093-.606a1.63,1.63,0,0,1,.036-1.406L8.692,12.745A3.673,3.673,0,0,1,9.453,11.4c.014-.015.029-.03.092-.089A4.819,4.819,0,0,1,10.764,10.572Z" transform="translate(249.797 68.047) rotate(45)" fill="#fff"/><path d="M2.542.093c2.876.4,46.926,7.475,46.926,7.475a22.65,22.65,0,0,1,7.824,7.824l46.367,85.993c1.514,2.807.465,3.856-2.342,2.342L15.324,57.361A22.65,22.65,0,0,1,7.5,49.536L.16,2.475C-.135.6-.334-.306,2.542.093Z" transform="translate(254.496 48.028) rotate(45)" fill="none"/><path d="M10.405,39.2c2.257.159,29.559-10.41,29.559-10.41,1.258-.445,2.295-.736,2.222-1.706L34.008,2.128c-.391-1.01-.985-2.6-2.481-2,0,0-27.546,10.98-29.168,11.684S-.232,12.877.048,13.906L7.781,37.229C8.2,38.193,8.149,39.043,10.405,39.2Z" transform="translate(264.014 50.959) rotate(45)" fill="#fff"/><path d="M.717.026,29.7,7.22a2.518,2.518,0,0,1,1.487,1.586c.236.731-.048,1.205-.634,1.06L1.57,2.673A2.518,2.518,0,0,1,.083,1.086C-.153.355.131-.119.717.026Z" transform="matrix(0.891, 0.454, -0.454, 0.891, 227.43, 95.033)" fill="#e3f4ff"/><path d="M9.459,34.858c2.061.145,27.013-9.215,27.013-9.215,1.15-.394,2.313-.508,2.032-1.515L31.078,1.9c-.355-.9-.9-2.312-2.262-1.782,0,0-25.176,9.727-26.658,10.35s-2.368.94-2.114,1.857L7.065,33.1C7.448,33.956,7.4,34.713,9.459,34.858Z" transform="translate(263.7 53.687) rotate(45)" fill="#84cbff"/></g></g></svg>