<svg xmlns="http://www.w3.org/2000/svg" xmlns:xlink="http://www.w3.org/1999/xlink" width="1920" height="1080" viewBox="0 0 1920 1080">
  <defs>
    <clipPath id="clip-Web_1920_1">
      <rect width="1920" height="1080"/>
    </clipPath>
  </defs>
  <g id="Web_1920_1" data-name="Web 1920 – 1" clip-path="url(#clip-Web_1920_1)">
    <rect width="1920" height="1080" fill="#fff"/>
    <path id="Path_1" data-name="Path 1" d="M0,498.528" fill="none" stroke="#707070" stroke-width="1"/>
    <path id="Path_2" data-name="Path 2" d="M0,385.276" fill="none" stroke="#707070" stroke-width="1"/>
    <path id="Path_4" data-name="Path 4" d="M740.008,407.6" transform="translate(0 -127.713)" fill="none" stroke="#707070" stroke-width="1"/>
    <path id="Path_17" data-name="Path 17" d="M-17.109,179.143c31.542,25.349,75.549,55.68,141.637,69.391,129.1,26.784,318.356,19.792,488.371,0,80.5-9.371,161.865-20.06,240.472-30.193,117.1-15.1,302.177-34.652,302.177-34.652s-2.345.033,21.723-.914,67.676-3.632,93.479-3.632c23.446,0,44.256,13.056,68.491,4.181-1.625,1.775,7.194-.594,9.7-1.564a34.928,34.928,0,0,1,10.025-2.394c284.035,13.41,543.931,78.882,543.931,78.882V5.3h-1920Z" transform="translate(17.109 15.536)" fill="#84cbff"/>
    <path id="Path_3" data-name="Path 3" d="M-17.109,179.143c31.542,25.349,75.549,55.68,141.637,69.391C184.559,260.988,257.6,266.139,335.659,266.1c89.815-.049,186.281-6.974,277.239-17.563,80.5-9.371,161.865-20.06,240.472-30.193,161.073-20.764,310.583-39.2,417.378-39.2,324.328,0,632.142,79.1,632.142,79.1V5.3h-1920Z" transform="translate(17.109 -5.464)" fill="#159cff"/>
    <path id="Path_18" data-name="Path 18" d="M52.092,38.775c5.076-2.4,87.591-37.27,87.591-37.27C141.847-.883,144.492-7,144.492-7a3.967,3.967,0,0,0-.626,1.573S141.012-.912,141.438-.79c.227.064-.539,1.6-2.387,4.681a59.985,59.985,0,0,0-2.963,5.823c-.126.252-1.185,3.03-1.185,3.03l-14.887,81.13c-.422,3.207-3.695,6.14-7.311,6.551,0,0-58.784,8.529-80.664,13.34a25.706,25.706,0,0,0-4.26,2.194c-1,.579-2.121,1.245-3.434,2.019A31.426,31.426,0,0,1,21,119.807c-15.685,5.132-9.4-4.618-2.084-7.259.139-.031,0,0-.162.038-.372.09-7.383,15.658-7.955,15.8-23.262,5.611-1.7-3.268-1.7-3.268-2.357.268-.945-.228-2.009-1.841-.443-.655-.389-1.931.653-3.947L44.658,45.437A13.627,13.627,0,0,1,47.6,41.459c.052-.046.106-.093.327-.275A20.986,20.986,0,0,1,52.092,38.775Z" transform="translate(1263.015 98.442) rotate(45)" fill="#84cbff"/>
    <path id="Path_9" data-name="Path 9" d="M52.987,45.1C59.7,41.27,167.134-14.515,167.134-14.515c4.63-.958,7.643,1.835,6.728,6.239L145.431,124.319c-.472,2.273-.683,5.8-2.82,7.794-1.556,1.462-4.979,1.452-7.221,1.916L-6.03,165.693c-3.019.625-6.867,1.271-8.024-.8-.484-.84-.264-2.58,1.3-5.436L42.777,54.972a23.552,23.552,0,0,1,4.195-5.731c.071-.068.145-.138.447-.41A33.242,33.242,0,0,1,52.987,45.1Z" transform="translate(1271.156 32.276) rotate(45)" fill="#fff"/>
    <path id="Path_10" data-name="Path 10" d="M76.8,63.9C85.385,59.8,215.019.019,215.019.019A9.887,9.887,0,0,1,225.71,10.71L214.635,202.635a13.063,13.063,0,0,1-12,12L10.71,225.71A9.887,9.887,0,0,1,.019,215.019L64.6,76.108C67.161,70.581,68.22,68.012,76.8,63.9Z" transform="translate(1303.5 -11.419) rotate(45)" fill="none"/>
    <path id="Path_11" data-name="Path 11" d="M23.226,186.307c9.539-1.21,135.394-69.361,135.394-69.361,5.765-2.961,10.45-5.074,10.951-9.172L155.416,7.664c-.83-4-2.048-10.3-8.959-6.48,0,0-127.244,70.121-134.783,74.493S-.321,82.4.018,86.572L13.63,180.049C14.629,183.828,13.687,187.517,23.226,186.307Z" transform="translate(1361.912 -41.771) rotate(45)" fill="#fff"/>
    <path id="Path_15" data-name="Path 15" d="M4.895,17.869,123.462.041c2.4-.36,4.1,1.721,3.813,4.648s-2.467,5.593-4.863,5.953L3.845,28.47c-2.4.36-4.1-1.721-3.813-4.648S2.5,18.229,4.895,17.869Z" transform="translate(1192.769 120.495) rotate(43)" fill="#e3f4ff"/>
    <path id="Path_14" data-name="Path 14" d="M21.5,166.16c8.71-1.1,123.484-62.11,123.484-62.11,5.258-2.651,10.337-4.114,9.977-8.193L141.747,6.805c-.77-3.558-1.9-9.16-8.2-5.741,0,0-116.037,62.764-122.911,66.676S-.3,73.753.018,77.469l12.7,83.148C13.641,163.978,12.791,167.264,21.5,166.16Z" transform="translate(1359.584 -29.799) rotate(45)" fill="#84cbff"/>
  </g>
</svg>
